HIERARCHY
ROOT joint_Root
{
	OFFSET 0.0 0.0 0.0
	CHANNELS 6 Xposition Yposition Zposition Zrotation Xrotation Yrotation 
	JOINT Hips
	{
		OFFSET 4.5925 91.4895 -427.239
		CHANNELS 6 Xposition Yposition Zposition Zrotation Xrotation Yrotation 
		JOINT Spine
		{
			OFFSET 15.7357 0.0 0.0
			CHANNELS 6 Xposition Yposition Zposition Zrotation Xrotation Yrotation 
			JOINT Chest
			{
				OFFSET 8.98455 -0.406207 0.0
				CHANNELS 6 Xposition Yposition Zposition Zrotation Xrotation Yrotation 
				JOINT Neck
				{
					OFFSET 16.3773 0.0 0.0
					CHANNELS 6 Xposition Yposition Zposition Zrotation Xrotation Yrotation 
					JOINT Head
					{
						OFFSET 6.45672 0.0 0.0
						CHANNELS 6 Xposition Yposition Zposition Zrotation Xrotation Yrotation 
						End Site
						{
							OFFSET 0.0 0.0 0.0
						}
					}
				}
				JOINT Shoulder_L
				{
					OFFSET 12.9942 -0.242716 4.98039
					CHANNELS 6 Xposition Yposition Zposition Zrotation Xrotation Yrotation 
					JOINT UpperArm_L
					{
						OFFSET 5.34809 0.0 0.0
						CHANNELS 6 Xposition Yposition Zposition Zrotation Xrotation Yrotation 
						JOINT LowerArm_L
						{
							OFFSET 24.3286 1.87007e-05 0.0
							CHANNELS 6 Xposition Yposition Zposition Zrotation Xrotation Yrotation 
							JOINT Hand_L
							{
								OFFSET 22.2916 0.0 0.0
								CHANNELS 6 Xposition Yposition Zposition Zrotation Xrotation Yrotation 
								End Site
								{
									OFFSET 0.0 0.0 0.0
								}
							}
						}
					}
				}
				JOINT Shoulder_R
				{
					OFFSET 12.9945 -0.242716 -4.98039
					CHANNELS 6 Xposition Yposition Zposition Zrotation Xrotation Yrotation 
					JOINT UpperArm_R
					{
						OFFSET -5.34813 0.0 0.0
						CHANNELS 6 Xposition Yposition Zposition Zrotation Xrotation Yrotation 
						JOINT LowerArm_R
						{
							OFFSET -24.3289 0.000322201 0.0
							CHANNELS 6 Xposition Yposition Zposition Zrotation Xrotation Yrotation 
							JOINT Hand_R
							{
								OFFSET -22.2915 -0.000108084 0.0
								CHANNELS 6 Xposition Yposition Zposition Zrotation Xrotation Yrotation 
								End Site
								{
									OFFSET 0.0 0.0 0.0
								}
							}
						}
					}
				}
			}
		}
		JOINT UpperLeg_L
		{
			OFFSET -2.19248 -6.46944 0.0
			CHANNELS 6 Xposition Yposition Zposition Zrotation Xrotation Yrotation 
			JOINT LowerLeg_L
			{
				OFFSET 39.0811 0.0 -1.23785e-05
				CHANNELS 6 Xposition Yposition Zposition Zrotation Xrotation Yrotation 
				JOINT Foot_L
				{
					OFFSET 40.9854 0.0 -1.26872e-05
					CHANNELS 6 Xposition Yposition Zposition Zrotation Xrotation Yrotation 
					JOINT Toes_L
					{
						OFFSET 11.7543 0.0 0.0
						CHANNELS 6 Xposition Yposition Zposition Zrotation Xrotation Yrotation 
						End Site
						{
							OFFSET 0.0 0.0 0.0
						}
					}
				}
			}
		}
		JOINT UpperLeg_R
		{
			OFFSET -2.19251 6.46944 0.0
			CHANNELS 6 Xposition Yposition Zposition Zrotation Xrotation Yrotation 
			JOINT LowerLeg_R
			{
				OFFSET -39.0811 -0.00228153 -0.0401928
				CHANNELS 6 Xposition Yposition Zposition Zrotation Xrotation Yrotation 
				JOINT Foot_R
				{
					OFFSET -40.9854 0.0 0.0
					CHANNELS 6 Xposition Yposition Zposition Zrotation Xrotation Yrotation 
					JOINT Toes_R
					{
						OFFSET -11.7543 0.0 0.0
						CHANNELS 6 Xposition Yposition Zposition Zrotation Xrotation Yrotation 
						End Site
						{
							OFFSET 0.0 0.0 0.0
						}
					}
				}
			}
		}
	}
}
MOTION
Frames:	7
Frame Time:	0.0333333
0.000000 0.000000 0.000000 0.000000 0.000000 -0.000000 2.867590 91.293300 -2.800930 89.434700 -8.546140 4.586270 15.735700 0.000005 -0.000001 83.489100 84.637900 -80.205000 8.984550 -0.406207 -0.000000 2.936890 -1.352990 6.596460 16.377300 -0.000001 -0.000001 1.134830 0.878661 -2.491080 6.456720 -0.000001 -0.000000 -6.254360 -0.073431 1.625750 12.994200 -0.242716 4.980390 -84.734300 -10.206400 -62.519700 5.348090 -0.000007 -0.000001 -49.227600 -68.148400 -94.133800 24.328600 0.000019 0.000005 7.724970 7.423400 -46.395000 22.291600 -0.000001 0.000005 20.661900 5.318630 -0.456570 12.994500 -0.242716 -4.980390 88.144000 8.096680 -77.043000 -5.348130 -0.000001 -0.000004 -57.030000 15.589500 -5.893930 -24.328900 0.000322 -0.000009 -0.398493 -0.779821 -27.005800 -22.291500 -0.000108 -0.000004 16.473200 5.435250 -4.120100 -2.192480 -6.469440 -0.000000 -178.100000 -13.898500 -6.137640 39.081100 -0.000007 -0.000012 -0.163312 0.292682 29.161100 40.985400 -0.000006 -0.000013 0.989926 0.566822 -68.585700 11.754300 -0.000000 0.000003 -0.000127 -0.001262 -16.625700 -2.192510 6.469440 -0.000001 175.137000 15.226500 173.425000 -39.081100 -0.002282 -0.040193 -0.146747 0.280276 28.163600 -40.985400 0.000008 0.000006 1.594790 15.528500 -66.968700 -11.754300 -0.000006 -0.000006 -0.002147 -0.030546 -17.815200
0.000000 0.000000 0.000000 0.000000 0.000000 -0.000000 2.769250 91.322000 -2.905830 89.494600 -8.204440 4.557240 15.735700 0.000005 -0.000001 83.377500 84.600900 -80.232700 8.984550 -0.406207 -0.000000 3.006440 -1.374490 6.319420 16.377300 -0.000001 -0.000001 1.065860 0.779561 -2.589350 6.456720 -0.000001 -0.000000 -6.288930 -0.042262 1.561140 12.994200 -0.242716 4.980390 -85.123500 -9.567450 -62.828100 5.348090 -0.000007 -0.000001 -46.428300 -67.358700 -89.161400 24.328600 0.000019 0.000005 8.469620 6.982880 -50.770100 22.291600 -0.000001 0.000005 20.471400 5.318880 -0.463686 12.994500 -0.242716 -4.980390 88.112700 8.196040 -76.985000 -5.348130 -0.000001 -0.000004 -56.964600 15.998800 -6.347700 -24.328900 0.000322 -0.000009 -0.435127 -0.861287 -26.747600 -22.291500 -0.000108 -0.000004 16.510600 5.431390 -3.986940 -2.192480 -6.469440 -0.000000 -178.101000 -13.780700 -6.205270 39.081100 -0.000007 -0.000012 -0.161467 0.291081 29.018000 40.985400 -0.000006 -0.000013 0.989318 0.822952 -68.406600 11.754300 -0.000000 0.000003 -0.000136 -0.001334 -16.628400 -2.192510 6.469440 -0.000001 175.140000 15.544600 173.423000 -39.081100 -0.002282 -0.040193 -0.148640 0.285024 28.062200 -40.985400 0.000008 0.000006 1.536660 15.486500 -66.861600 -11.754300 -0.000006 -0.000006 -0.002015 -0.028902 -17.748300
0.000000 0.000000 0.000000 0.000000 0.000000 -0.000000 2.653890 91.344100 -2.996990 89.557200 -7.724340 4.490830 15.735700 0.000005 -0.000001 82.927400 84.575300 -79.936200 8.984550 -0.406207 -0.000000 3.046670 -1.457470 6.015320 16.377300 -0.000001 -0.000001 0.980796 0.588423 -2.577220 6.456720 -0.000001 -0.000000 -6.336400 -0.138421 1.515170 12.994200 -0.242716 4.980390 -85.544000 -8.900790 -63.267500 5.348090 -0.000007 -0.000001 -43.739000 -66.187700 -83.563800 24.328600 0.000019 0.000005 9.449810 6.340190 -56.436500 22.291600 -0.000001 0.000005 20.273700 5.315570 -0.368495 12.994500 -0.242716 -4.980390 88.079100 8.275500 -76.883400 -5.348130 -0.000001 -0.000004 -57.067500 16.316200 -6.699480 -24.328900 0.000322 -0.000009 -0.498757 -0.999966 -26.461800 -22.291500 -0.000108 -0.000004 16.497000 5.431100 -3.976820 -2.192480 -6.469440 -0.000000 -178.104000 -13.636700 -6.338610 39.081100 -0.000007 -0.000012 -0.157756 0.285631 28.912400 40.985400 -0.000006 -0.000013 0.999222 1.161180 -68.238500 11.754300 -0.000000 0.000003 -0.000137 -0.001349 -16.628900 -2.192510 6.469440 -0.000001 175.147000 15.865300 173.411000 -39.081100 -0.002282 -0.040193 -0.153314 0.294865 27.975500 -40.985400 0.000008 0.000006 1.394010 15.345900 -66.772800 -11.754300 -0.000006 -0.000006 -0.002161 -0.030717 -17.822200
0.000000 0.000000 0.000000 0.000000 0.000000 -0.000000 2.529230 91.381600 -3.071450 89.599200 -7.230660 4.426950 15.735700 0.000005 -0.000001 82.843700 84.552700 -80.008500 8.984550 -0.406207 -0.000000 3.087360 -1.471400 5.704440 16.377300 -0.000001 -0.000001 0.863264 0.351656 -2.514900 6.456720 -0.000001 -0.000000 -6.417460 -0.312247 1.520010 12.994200 -0.242716 4.980390 -85.971300 -8.233380 -63.811600 5.348090 -0.000007 -0.000001 -41.255800 -64.446800 -77.418800 24.328600 0.000019 0.000005 10.136400 5.210190 -63.072300 22.291600 -0.000001 0.000005 19.941300 5.308680 -0.172045 12.994500 -0.242716 -4.980390 88.043600 8.337140 -76.744100 -5.348130 -0.000001 -0.000004 -57.320600 16.636400 -6.798750 -24.328900 0.000322 -0.000009 -0.539338 -1.083930 -26.410500 -22.291500 -0.000108 -0.000004 16.500800 5.431800 -4.000900 -2.192480 -6.469440 -0.000000 -178.078000 -13.501800 -6.404820 39.081100 -0.000007 -0.000012 -0.152985 0.279206 28.719700 40.985400 -0.000006 -0.000013 1.017000 1.554380 -68.044700 11.754300 -0.000000 0.000003 -0.000126 -0.001256 -16.625500 -2.192510 6.469440 -0.000001 175.191000 16.188400 173.455000 -39.081100 -0.002282 -0.040193 -0.152244 0.294773 27.820500 -40.985400 0.000008 0.000006 1.425410 15.168900 -66.718000 -11.754300 -0.000006 -0.000006 -0.002311 -0.032546 -17.896600
0.000000 0.000000 0.000000 0.000000 0.000000 -0.000000 2.398780 91.413800 -3.139940 89.654900 -6.711860 4.357460 15.735700 0.000005 -0.000001 82.895000 84.535800 -80.246200 8.984550 -0.406207 -0.000000 3.118600 -1.457580 5.332010 16.377300 -0.000001 -0.000001 0.791267 0.055090 -2.327420 6.456720 -0.000001 -0.000000 -6.522630 -0.459247 1.505440 12.994200 -0.242716 4.980390 -86.398400 -7.633480 -64.646500 5.348090 -0.000007 -0.000001 -38.659100 -62.279300 -70.482000 24.328600 0.000019 0.000005 10.926300 3.942560 -70.394100 22.291600 -0.000001 0.000005 19.086900 5.296880 0.160105 12.994500 -0.242716 -4.980390 88.010500 8.418090 -76.651600 -5.348130 -0.000001 -0.000004 -57.707700 17.093700 -6.725650 -24.328900 0.000322 -0.000009 -0.575996 -1.157950 -26.406900 -22.291500 -0.000108 -0.000004 16.522600 5.432510 -4.025470 -2.192480 -6.469440 -0.000000 -178.069000 -13.329500 -6.487500 39.081100 -0.000007 -0.000012 -0.147717 0.271556 28.544800 40.985400 -0.000006 -0.000013 1.022890 1.919780 -67.860400 11.754300 -0.000000 0.000003 -0.000126 -0.001254 -16.625400 -2.192510 6.469440 -0.000001 175.211000 16.672800 173.477000 -39.081100 -0.002282 -0.040193 -0.149667 0.291260 27.709200 -40.985400 0.000008 0.000006 1.496560 15.094000 -66.688100 -11.754300 -0.000006 -0.000006 -0.002365 -0.033197 -17.923000
0.000000 0.000000 0.000000 0.000000 0.000000 -0.000000 2.265570 91.450200 -3.175040 89.704500 -6.185840 4.311370 15.735700 0.000005 -0.000001 83.075400 84.502100 -80.621700 8.984550 -0.406207 -0.000000 3.185550 -1.422210 4.941900 16.377300 -0.000001 -0.000001 0.652052 -0.174017 -2.141250 6.456720 -0.000001 -0.000000 -6.624850 -0.647906 1.558130 12.994200 -0.242716 4.980390 -86.781400 -7.028150 -65.317000 5.348090 -0.000007 -0.000001 -36.897800 -58.968600 -63.744600 24.328600 0.000019 0.000005 11.859100 2.569710 -77.947300 22.291600 -0.000001 0.000005 18.413800 5.284480 0.503711 12.994500 -0.242716 -4.980390 87.972000 8.488750 -76.511000 -5.348130 -0.000001 -0.000004 -58.146400 17.821600 -6.654050 -24.328900 0.000322 -0.000009 -0.585282 -1.178880 -26.363700 -22.291500 -0.000108 -0.000004 16.320700 5.430430 -3.953820 -2.192480 -6.469440 -0.000000 -178.033000 -13.283100 -6.504020 39.081100 -0.000007 -0.000012 -0.141977 0.263289 28.335800 40.985400 -0.000006 -0.000013 1.052430 2.386960 -67.681200 11.754300 -0.000000 0.000003 -0.000134 -0.001324 -16.628000 -2.192510 6.469440 -0.000001 175.196000 17.355100 173.580000 -39.081100 -0.002282 -0.040193 -0.147338 0.288707 27.555200 -40.985400 0.000008 0.000006 1.613290 15.226700 -66.669000 -11.754300 -0.000006 -0.000006 -0.002155 -0.030634 -17.818800
0.000000 0.000000 0.000000 0.000000 0.000000 -0.000000 2.146150 91.483400 -3.207750 89.749100 -5.759950 4.198770 15.735700 0.000005 -0.000001 83.592500 84.470100 -81.350400 8.984550 -0.406207 -0.000000 3.255280 -1.321070 4.517090 16.377300 -0.000001 -0.000001 0.396275 -0.468859 -1.907080 6.456720 -0.000001 -0.000000 -6.719020 -0.750968 1.612810 12.994200 -0.242716 4.980390 -87.219000 -6.288380 -66.083700 5.348090 -0.000007 -0.000001 -34.790900 -54.769100 -56.382700 24.328600 0.000019 0.000005 12.412100 1.067980 -85.158900 22.291600 -0.000001 0.000005 17.924500 5.273560 0.801995 12.994500 -0.242716 -4.980390 87.930300 8.581620 -76.385900 -5.348130 -0.000001 -0.000004 -58.640900 18.790600 -6.631920 -24.328900 0.000322 -0.000009 -0.551316 -1.117920 -26.208800 -22.291500 -0.000108 -0.000004 16.256800 5.430750 -3.964760 -2.192480 -6.469440 -0.000000 -177.989000 -13.313500 -6.574920 39.081100 -0.000007 -0.000012 -0.142241 0.265963 28.138700 40.985400 -0.000006 -0.000013 1.075980 2.867420 -67.522500 11.754300 -0.000000 0.000003 -0.000124 -0.001234 -16.624700 -2.192510 6.469440 -0.000001 175.202000 17.940800 173.592000 -39.081100 -0.002282 -0.040193 -0.146642 0.289127 27.412700 -40.985400 0.000008 0.000006 1.717120 15.368200 -66.644700 -11.754300 -0.000006 -0.000006 -0.002236 -0.031633 -17.859400
